<mxfile host="app.diagrams.net" modified="2023-10-03T22:34:14.970Z" agent="Mozilla/5.0 (X11; Linux x86_64) AppleWebKit/537.36 (KHTML, like Gecko) Chrome/116.0.0.0 Safari/537.36" etag="cwVoLmDqcXdN5xyH7Ybr" version="22.0.2" type="github">
  <diagram name="Page-1" id="b3BWHuneYl6iIMnbU8mR">
    <mxGraphModel dx="2657" dy="1220" grid="1" gridSize="10" guides="1" tooltips="1" connect="1" arrows="1" fold="1" page="1" pageScale="1" pageWidth="850" pageHeight="1100" math="0" shadow="0">
      <root>
        <mxCell id="0" />
        <mxCell id="1" parent="0" />
        <mxCell id="rHpnYdRRQrKdWOPf68tB-1" value="user" style="swimlane;childLayout=stackLayout;horizontal=1;startSize=50;horizontalStack=0;rounded=1;fontSize=14;fontStyle=0;strokeWidth=2;resizeParent=0;resizeLast=1;shadow=0;dashed=0;align=center;arcSize=4;whiteSpace=wrap;html=1;" vertex="1" parent="1">
          <mxGeometry x="-730" y="80" width="160" height="120" as="geometry" />
        </mxCell>
        <mxCell id="rHpnYdRRQrKdWOPf68tB-2" value="+user_key&lt;br&gt;+password_hash&lt;br&gt;+email" style="align=left;strokeColor=none;fillColor=none;spacingLeft=4;fontSize=12;verticalAlign=top;resizable=0;rotatable=0;part=1;html=1;" vertex="1" parent="rHpnYdRRQrKdWOPf68tB-1">
          <mxGeometry y="50" width="160" height="70" as="geometry" />
        </mxCell>
        <mxCell id="rHpnYdRRQrKdWOPf68tB-3" value="shop" style="swimlane;childLayout=stackLayout;horizontal=1;startSize=50;horizontalStack=0;rounded=1;fontSize=14;fontStyle=0;strokeWidth=2;resizeParent=0;resizeLast=1;shadow=0;dashed=0;align=center;arcSize=4;whiteSpace=wrap;html=1;" vertex="1" parent="1">
          <mxGeometry x="-100" y="90" width="160" height="120" as="geometry" />
        </mxCell>
        <mxCell id="rHpnYdRRQrKdWOPf68tB-4" value="+shop_key&lt;br&gt;+phone_number&lt;br&gt;+address&lt;br&gt;+description&lt;br&gt;" style="align=left;strokeColor=none;fillColor=none;spacingLeft=4;fontSize=12;verticalAlign=top;resizable=0;rotatable=0;part=1;html=1;" vertex="1" parent="rHpnYdRRQrKdWOPf68tB-3">
          <mxGeometry y="50" width="160" height="70" as="geometry" />
        </mxCell>
        <mxCell id="rHpnYdRRQrKdWOPf68tB-5" value="shop_bookmark" style="swimlane;childLayout=stackLayout;horizontal=1;startSize=50;horizontalStack=0;rounded=1;fontSize=14;fontStyle=0;strokeWidth=2;resizeParent=0;resizeLast=1;shadow=0;dashed=0;align=center;arcSize=4;whiteSpace=wrap;html=1;" vertex="1" parent="1">
          <mxGeometry x="-425" y="80" width="160" height="120" as="geometry" />
        </mxCell>
        <mxCell id="rHpnYdRRQrKdWOPf68tB-6" value="+user_key&lt;br&gt;+shop_key&lt;br&gt;+order" style="align=left;strokeColor=none;fillColor=none;spacingLeft=4;fontSize=12;verticalAlign=top;resizable=0;rotatable=0;part=1;html=1;" vertex="1" parent="rHpnYdRRQrKdWOPf68tB-5">
          <mxGeometry y="50" width="160" height="70" as="geometry" />
        </mxCell>
        <mxCell id="rHpnYdRRQrKdWOPf68tB-7" value="" style="edgeStyle=entityRelationEdgeStyle;fontSize=12;html=1;endArrow=ERoneToMany;rounded=0;exitX=1;exitY=0.5;exitDx=0;exitDy=0;entryX=0;entryY=0.5;entryDx=0;entryDy=0;" edge="1" parent="1" source="rHpnYdRRQrKdWOPf68tB-2" target="rHpnYdRRQrKdWOPf68tB-6">
          <mxGeometry width="100" height="100" relative="1" as="geometry">
            <mxPoint x="-40" y="360" as="sourcePoint" />
            <mxPoint x="-420" y="270" as="targetPoint" />
          </mxGeometry>
        </mxCell>
        <mxCell id="rHpnYdRRQrKdWOPf68tB-8" value="" style="edgeStyle=entityRelationEdgeStyle;fontSize=12;html=1;endArrow=ERoneToMany;rounded=0;exitX=0;exitY=0.25;exitDx=0;exitDy=0;entryX=0.988;entryY=0.4;entryDx=0;entryDy=0;entryPerimeter=0;" edge="1" parent="1" source="rHpnYdRRQrKdWOPf68tB-4" target="rHpnYdRRQrKdWOPf68tB-6">
          <mxGeometry width="100" height="100" relative="1" as="geometry">
            <mxPoint x="-120" y="260" as="sourcePoint" />
            <mxPoint x="-230" y="200" as="targetPoint" />
          </mxGeometry>
        </mxCell>
        <mxCell id="rHpnYdRRQrKdWOPf68tB-9" value="tag" style="swimlane;childLayout=stackLayout;horizontal=1;startSize=50;horizontalStack=0;rounded=1;fontSize=14;fontStyle=0;strokeWidth=2;resizeParent=0;resizeLast=1;shadow=0;dashed=0;align=center;arcSize=4;whiteSpace=wrap;html=1;" vertex="1" parent="1">
          <mxGeometry x="-440" y="450" width="160" height="120" as="geometry" />
        </mxCell>
        <mxCell id="rHpnYdRRQrKdWOPf68tB-10" value="+tag_key&lt;br&gt;+label&lt;br&gt;+group" style="align=left;strokeColor=none;fillColor=none;spacingLeft=4;fontSize=12;verticalAlign=top;resizable=0;rotatable=0;part=1;html=1;" vertex="1" parent="rHpnYdRRQrKdWOPf68tB-9">
          <mxGeometry y="50" width="160" height="70" as="geometry" />
        </mxCell>
        <mxCell id="rHpnYdRRQrKdWOPf68tB-11" value="active_tag" style="swimlane;childLayout=stackLayout;horizontal=1;startSize=50;horizontalStack=0;rounded=1;fontSize=14;fontStyle=0;strokeWidth=2;resizeParent=0;resizeLast=1;shadow=0;dashed=0;align=center;arcSize=4;whiteSpace=wrap;html=1;" vertex="1" parent="1">
          <mxGeometry x="-100" y="440" width="160" height="120" as="geometry" />
        </mxCell>
        <mxCell id="rHpnYdRRQrKdWOPf68tB-12" value="+shop_key&lt;br&gt;+tag_key&lt;br&gt;+user_key" style="align=left;strokeColor=none;fillColor=none;spacingLeft=4;fontSize=12;verticalAlign=top;resizable=0;rotatable=0;part=1;html=1;" vertex="1" parent="rHpnYdRRQrKdWOPf68tB-11">
          <mxGeometry y="50" width="160" height="70" as="geometry" />
        </mxCell>
        <mxCell id="rHpnYdRRQrKdWOPf68tB-13" value="priority_tag" style="swimlane;childLayout=stackLayout;horizontal=1;startSize=50;horizontalStack=0;rounded=1;fontSize=14;fontStyle=0;strokeWidth=2;resizeParent=0;resizeLast=1;shadow=0;dashed=0;align=center;arcSize=4;whiteSpace=wrap;html=1;" vertex="1" parent="1">
          <mxGeometry x="-710" y="450" width="160" height="120" as="geometry" />
        </mxCell>
        <mxCell id="rHpnYdRRQrKdWOPf68tB-14" value="+user_key&lt;br&gt;+tag_key" style="align=left;strokeColor=none;fillColor=none;spacingLeft=4;fontSize=12;verticalAlign=top;resizable=0;rotatable=0;part=1;html=1;" vertex="1" parent="rHpnYdRRQrKdWOPf68tB-13">
          <mxGeometry y="50" width="160" height="70" as="geometry" />
        </mxCell>
        <mxCell id="rHpnYdRRQrKdWOPf68tB-27" value="" style="edgeStyle=entityRelationEdgeStyle;fontSize=12;html=1;endArrow=ERoneToMany;rounded=0;exitX=1;exitY=0.25;exitDx=0;exitDy=0;" edge="1" parent="1" source="rHpnYdRRQrKdWOPf68tB-4" target="rHpnYdRRQrKdWOPf68tB-12">
          <mxGeometry width="100" height="100" relative="1" as="geometry">
            <mxPoint x="-50" y="320" as="sourcePoint" />
            <mxPoint x="60" y="260" as="targetPoint" />
          </mxGeometry>
        </mxCell>
        <mxCell id="rHpnYdRRQrKdWOPf68tB-38" value="" style="edgeStyle=entityRelationEdgeStyle;fontSize=12;html=1;endArrow=ERoneToMany;rounded=0;exitX=0;exitY=1;exitDx=0;exitDy=0;entryX=0;entryY=0.25;entryDx=0;entryDy=0;" edge="1" parent="1" source="rHpnYdRRQrKdWOPf68tB-2" target="rHpnYdRRQrKdWOPf68tB-14">
          <mxGeometry width="100" height="100" relative="1" as="geometry">
            <mxPoint x="-560" y="240" as="sourcePoint" />
            <mxPoint x="-460" y="140" as="targetPoint" />
            <Array as="points">
              <mxPoint x="-820" y="240" />
            </Array>
          </mxGeometry>
        </mxCell>
        <mxCell id="rHpnYdRRQrKdWOPf68tB-40" value="" style="edgeStyle=entityRelationEdgeStyle;fontSize=12;html=1;endArrow=ERoneToMany;rounded=0;entryX=0;entryY=0.25;entryDx=0;entryDy=0;exitX=1;exitY=1;exitDx=0;exitDy=0;" edge="1" parent="1" source="rHpnYdRRQrKdWOPf68tB-2" target="rHpnYdRRQrKdWOPf68tB-11">
          <mxGeometry width="100" height="100" relative="1" as="geometry">
            <mxPoint x="-260" y="370" as="sourcePoint" />
            <mxPoint x="-160" y="270" as="targetPoint" />
          </mxGeometry>
        </mxCell>
        <mxCell id="rHpnYdRRQrKdWOPf68tB-41" value="" style="edgeStyle=entityRelationEdgeStyle;fontSize=12;html=1;endArrow=ERoneToMany;rounded=0;entryX=1;entryY=0.25;entryDx=0;entryDy=0;exitX=0;exitY=0.25;exitDx=0;exitDy=0;" edge="1" parent="1" source="rHpnYdRRQrKdWOPf68tB-10" target="rHpnYdRRQrKdWOPf68tB-14">
          <mxGeometry width="100" height="100" relative="1" as="geometry">
            <mxPoint x="-560" y="240" as="sourcePoint" />
            <mxPoint x="-460" y="140" as="targetPoint" />
          </mxGeometry>
        </mxCell>
        <mxCell id="rHpnYdRRQrKdWOPf68tB-42" value="" style="edgeStyle=entityRelationEdgeStyle;fontSize=12;html=1;endArrow=ERoneToMany;rounded=0;entryX=-0.025;entryY=0.386;entryDx=0;entryDy=0;entryPerimeter=0;exitX=1;exitY=0.25;exitDx=0;exitDy=0;" edge="1" parent="1" source="rHpnYdRRQrKdWOPf68tB-10" target="rHpnYdRRQrKdWOPf68tB-12">
          <mxGeometry width="100" height="100" relative="1" as="geometry">
            <mxPoint x="-560" y="240" as="sourcePoint" />
            <mxPoint x="-460" y="140" as="targetPoint" />
          </mxGeometry>
        </mxCell>
        <mxCell id="rHpnYdRRQrKdWOPf68tB-45" value="shop_photo" style="swimlane;childLayout=stackLayout;horizontal=1;startSize=50;horizontalStack=0;rounded=1;fontSize=14;fontStyle=0;strokeWidth=2;resizeParent=0;resizeLast=1;shadow=0;dashed=0;align=center;arcSize=4;whiteSpace=wrap;html=1;" vertex="1" parent="1">
          <mxGeometry x="190" y="70" width="160" height="120" as="geometry" />
        </mxCell>
        <mxCell id="rHpnYdRRQrKdWOPf68tB-46" value="+shop_key&lt;br&gt;+url&lt;br&gt;+credit&lt;br&gt;+descripion" style="align=left;strokeColor=none;fillColor=none;spacingLeft=4;fontSize=12;verticalAlign=top;resizable=0;rotatable=0;part=1;html=1;" vertex="1" parent="rHpnYdRRQrKdWOPf68tB-45">
          <mxGeometry y="50" width="160" height="70" as="geometry" />
        </mxCell>
        <mxCell id="rHpnYdRRQrKdWOPf68tB-49" value="" style="edgeStyle=entityRelationEdgeStyle;fontSize=12;html=1;endArrow=ERoneToMany;rounded=0;exitX=1;exitY=0;exitDx=0;exitDy=0;entryX=0;entryY=0.25;entryDx=0;entryDy=0;" edge="1" parent="1" source="rHpnYdRRQrKdWOPf68tB-4" target="rHpnYdRRQrKdWOPf68tB-46">
          <mxGeometry width="100" height="100" relative="1" as="geometry">
            <mxPoint x="-150" y="280" as="sourcePoint" />
            <mxPoint x="160" y="310" as="targetPoint" />
          </mxGeometry>
        </mxCell>
      </root>
    </mxGraphModel>
  </diagram>
</mxfile>
